# xmcd
#
# Track frame offsets: 
#        150
#        22574
#        50981
#        73680
#        93387
#        96757
#        118739
#        139280
#        160553
#        177026
#
# Disc length: 2484 seconds
#
# Revision: 2
# Processed by: cddbd v1.5.2PL0 Copyright (c) Steve Scherf et al.
# Submitted via: ExactAudioCopyFreeDBPlugin 1.0
#
DISCID=7e09b20a
DTITLE=Rodney Franklin - Endless Flight
DYEAR=1981
DGENRE=Jazz+Funk
TTITLE0=Dance Tonight
TTITLE1=Cancion Para Mi Mama (Song For My Mother)
TTITLE2=Vibrations
TTITLE3=Benetta
TTITLE4=Morning Light (Reprise From Dance Tonight)
TTITLE5=Endless Flight
TTITLE6=Mensaje De Dios (Message From God)
TTITLE7=Return To The Source
TTITLE8=Hill Street Blues
TTITLE9=Cancion Para Mi Mama (Epilogue)
EXTD=
EXTT0=
EXTT1=
EXTT2=
EXTT3=
EXTT4=
EXTT5=
EXTT6=
EXTT7=
EXTT8=
EXTT9=
PLAYORDER=
